General
Complete name                    : Eden à l'Ouest .mkv
Format                           : Matroska
File size                        : 1.72 GiB
Duration                         : 1h 46mn
Overall bit rate                 : 2 324 Kbps


Video
ID                               : 1
Format                           : AVC
Duration                         : 1h 46mn
Bit rate                         : 1 830 Kbps
Width                            : 720 pixels
Height                           : 436 pixels
Display aspect ratio             : 2.35:1
Frame rate                       : 25.000 fps
Resolution                       : 8 bits
Colorimetry                      : 4:2:0
Scan type                        : Progressive
Bits/(Pixel*Frame)               : 0.233
Stream size                      : 1.36 GiB (79%)
Writing library                  : x264 core 79


Audio
ID                               : 2
Format                           : AC-3
Format/Info                      : Audio Coding 3
Codec ID                         : A_AC3
Duration                         : 1h 46mn
Bit rate mode                    : Constant
Bit rate                         : 448 Kbps
Channel(s)                       : 6 channels
Channel positions                : Front: L C R, Surround: L R, LFE
Sampling rate                    : 48.0 KHz
Stream size                      : 340 MiB (19%)
Language                         : French

Text #1
Language                         : Danish

Text #2
Language                         : Swedish

Text #3
Language                         : Norwegian

Text #4
Language                         : Finnish

